<?xml version="1.0" encoding="utf-8"?>
<!-- Generator: Adobe Illustrator 16.0.3, SVG Export Plug-In . SVG Version: 6.00 Build 0)  -->
<!DOCTYPE svg PUBLIC "-//W3C//DTD SVG 1.1//EN" "http://www.w3.org/Graphics/SVG/1.1/DTD/svg11.dtd">
<svg version="1.1" xmlns="http://www.w3.org/2000/svg" xmlns:xlink="http://www.w3.org/1999/xlink" x="0px" y="0px" width="612px"
	 height="612px" viewBox="0 0 612 612" enable-background="new 0 0 612 612" xml:space="preserve">
<g id="Layer_1">
	<g>
		<g>
			<defs>
				<rect id="SVGID_1_" x="-0.008" y="-0.006" width="612" height="612"/>
			</defs>
			<clipPath id="SVGID_2_">
				<use xlink:href="#SVGID_1_"  overflow="visible"/>
			</clipPath>
			<g clip-path="url(#SVGID_2_)">
				<defs>
					<rect id="SVGID_3_" x="-0.008" y="-0.006" width="612" height="612"/>
				</defs>
				<clipPath id="SVGID_4_">
					<use xlink:href="#SVGID_3_"  overflow="visible"/>
				</clipPath>
				<path clip-path="url(#SVGID_4_)" fill="#BA890B" d="M611.992,306.093c-0.056,169-137.101,305.956-306.1,305.9
					c-169-0.056-305.955-137.102-305.9-306.101C0.047,136.893,137.092-0.061,306.093-0.007
					C475.093,0.049,612.048,137.094,611.992,306.093 M306.025,206.259c-55.081-0.018-99.747,44.621-99.765,99.701
					c-0.018,55.082,44.619,99.749,99.7,99.766c55.082,0.019,99.748-44.618,99.766-99.701
					C405.744,250.946,361.106,206.277,306.025,206.259"/>
				<path clip-path="url(#SVGID_4_)" fill="#BA890B" d="M380.092,365.763c-33.01,40.925-92.945,47.342-133.869,14.331
					c-40.924-33.01-47.339-92.943-14.329-133.869c33.011-40.924,92.943-47.339,133.868-14.329
					C406.686,264.906,413.102,324.839,380.092,365.763 M319.018,289.846c-8.919-7.194-21.979-5.796-29.173,3.123
					c-7.195,8.919-5.796,21.979,3.123,29.172c8.919,7.194,21.979,5.797,29.173-3.123C329.334,310.1,327.937,297.04,319.018,289.846"
					/>
			</g>
			<g clip-path="url(#SVGID_2_)">
				<defs>
					<polygon id="SVGID_5_" points="392.832,238.549 544.406,142.198 526.264,118.51 					"/>
				</defs>
				<clipPath id="SVGID_6_">
					<use xlink:href="#SVGID_5_"  overflow="visible"/>
				</clipPath>
				
					<linearGradient id="SVGID_7_" gradientUnits="userSpaceOnUse" x1="16.3813" y1="-12.105" x2="17.3813" y2="-12.105" gradientTransform="matrix(17.9563 23.8288 23.8288 -17.9563 454.9688 -439.75)">
					<stop  offset="0" style="stop-color:#BA890B"/>
					<stop  offset="0.0534" style="stop-color:#BC8C11"/>
					<stop  offset="0.1274" style="stop-color:#C29623"/>
					<stop  offset="0.2135" style="stop-color:#CCA641"/>
					<stop  offset="0.3087" style="stop-color:#DABB6A"/>
					<stop  offset="0.4101" style="stop-color:#EBD79E"/>
					<stop  offset="0.5" style="stop-color:#FDF3D2"/>
					<stop  offset="0.6013" style="stop-color:#E9D396"/>
					<stop  offset="0.6983" style="stop-color:#D8B964"/>
					<stop  offset="0.7891" style="stop-color:#CBA43E"/>
					<stop  offset="0.8723" style="stop-color:#C29522"/>
					<stop  offset="0.9452" style="stop-color:#BC8C11"/>
					<stop  offset="1" style="stop-color:#BA890B"/>
				</linearGradient>
				<polygon clip-path="url(#SVGID_6_)" fill="url(#SVGID_7_)" points="489.509,45.659 602.101,195.073 447.729,311.4 
					335.138,161.986 				"/>
			</g>
			<g clip-path="url(#SVGID_2_)">
				<defs>
					<polygon id="SVGID_8_" points="70.759,474.32 89.35,497.658 220.46,375.087 					"/>
				</defs>
				<clipPath id="SVGID_9_">
					<use xlink:href="#SVGID_8_"  overflow="visible"/>
				</clipPath>
				
					<linearGradient id="SVGID_10_" gradientUnits="userSpaceOnUse" x1="16.3853" y1="-12.583" x2="17.3853" y2="-12.583" gradientTransform="matrix(17.951 23.8218 23.8218 -17.951 142.3438 -191.6172)">
					<stop  offset="0" style="stop-color:#BA890B"/>
					<stop  offset="0.0534" style="stop-color:#BC8C11"/>
					<stop  offset="0.1274" style="stop-color:#C29623"/>
					<stop  offset="0.2135" style="stop-color:#CCA641"/>
					<stop  offset="0.3087" style="stop-color:#DABB6A"/>
					<stop  offset="0.4101" style="stop-color:#EBD79E"/>
					<stop  offset="0.5" style="stop-color:#FDF3D2"/>
					<stop  offset="0.6013" style="stop-color:#E9D396"/>
					<stop  offset="0.6983" style="stop-color:#D8B964"/>
					<stop  offset="0.7891" style="stop-color:#CBA43E"/>
					<stop  offset="0.8723" style="stop-color:#C29522"/>
					<stop  offset="0.9452" style="stop-color:#BC8C11"/>
					<stop  offset="1" style="stop-color:#BA890B"/>
				</linearGradient>
				<polygon clip-path="url(#SVGID_9_)" fill="url(#SVGID_10_)" points="166.241,303.136 279.372,453.265 124.978,569.609 
					11.848,419.479 				"/>
			</g>
			<g clip-path="url(#SVGID_2_)">
				<defs>
					<path id="SVGID_11_" d="M329.144,198.421c8.685,1.873,17.282,4.838,25.609,8.958c8.328,4.119,15.899,9.151,22.662,14.918
						L488.922,81.829c-16.518-13.457-34.783-25.289-54.692-35.135c-19.902-9.847-40.394-17.186-61.114-22.146L329.144,198.421z"/>
				</defs>
				<clipPath id="SVGID_12_">
					<use xlink:href="#SVGID_11_"  overflow="visible"/>
				</clipPath>
				
					<linearGradient id="SVGID_13_" gradientUnits="userSpaceOnUse" x1="2.1504" y1="-4.1309" x2="3.1504" y2="-4.1309" gradientTransform="matrix(115.1095 58.6512 58.6512 -115.1095 335.25 -513.125)">
					<stop  offset="0" style="stop-color:#BA890B"/>
					<stop  offset="0.0534" style="stop-color:#BC8C11"/>
					<stop  offset="0.1274" style="stop-color:#C29623"/>
					<stop  offset="0.2135" style="stop-color:#CCA641"/>
					<stop  offset="0.3087" style="stop-color:#DABB6A"/>
					<stop  offset="0.4101" style="stop-color:#EBD79E"/>
					<stop  offset="0.5" style="stop-color:#FDF3D2"/>
					<stop  offset="0.6013" style="stop-color:#E9D396"/>
					<stop  offset="0.6983" style="stop-color:#D8B964"/>
					<stop  offset="0.7891" style="stop-color:#CBA43E"/>
					<stop  offset="0.8723" style="stop-color:#C29522"/>
					<stop  offset="0.9452" style="stop-color:#BC8C11"/>
					<stop  offset="1" style="stop-color:#BA890B"/>
				</linearGradient>
				<polygon clip-path="url(#SVGID_12_)" fill="url(#SVGID_13_)" points="362.075,-40.084 568.913,65.306 455.99,286.929 
					249.152,181.54 				"/>
			</g>
			<g clip-path="url(#SVGID_2_)">
				<defs>
					<path id="SVGID_14_" d="M123.215,530.193c16.533,13.441,34.81,25.254,54.728,35.08c19.916,9.824,40.413,17.142,61.138,22.084
						l43.794-173.919c-8.686-1.864-17.289-4.82-25.618-8.934c-8.334-4.11-15.911-9.136-22.678-14.893L123.215,530.193z"/>
				</defs>
				<clipPath id="SVGID_15_">
					<use xlink:href="#SVGID_14_"  overflow="visible"/>
				</clipPath>
				
					<linearGradient id="SVGID_16_" gradientUnits="userSpaceOnUse" x1="2.1504" y1="-4.311" x2="3.1504" y2="-4.311" gradientTransform="matrix(115.1086 58.6508 58.6508 -115.1086 161.875 -157.5625)">
					<stop  offset="0" style="stop-color:#BA890B"/>
					<stop  offset="0.0534" style="stop-color:#BC8C11"/>
					<stop  offset="0.1274" style="stop-color:#C29623"/>
					<stop  offset="0.2135" style="stop-color:#CCA641"/>
					<stop  offset="0.3087" style="stop-color:#DABB6A"/>
					<stop  offset="0.4101" style="stop-color:#EBD79E"/>
					<stop  offset="0.5" style="stop-color:#FDF3D2"/>
					<stop  offset="0.6013" style="stop-color:#E9D396"/>
					<stop  offset="0.6983" style="stop-color:#D8B964"/>
					<stop  offset="0.7891" style="stop-color:#CBA43E"/>
					<stop  offset="0.8723" style="stop-color:#C29522"/>
					<stop  offset="0.9452" style="stop-color:#BC8C11"/>
					<stop  offset="1" style="stop-color:#BA890B"/>
				</linearGradient>
				<polygon clip-path="url(#SVGID_15_)" fill="url(#SVGID_16_)" points="156.122,325.028 362.864,430.368 249.968,651.941 
					43.226,546.601 				"/>
			</g>
		</g>
	</g>
</g>
<g id="Layer_2">
	<path fill="none" stroke="#000000" stroke-width="40" stroke-miterlimit="10" d="M281.968,132.995h48.05l134.538,323.242h-65.959
		l-33.197-83.432H246.586l-33.198,83.432h-65.959L281.968,132.995z M342.685,314.709l-36.692-94.352L269.3,314.709H342.685z"/>
	<path fill="#FFFFFF" d="M281.968,132.995h48.05l134.538,323.242h-65.959l-33.197-83.432H246.586l-33.198,83.432h-65.959
		L281.968,132.995z M342.685,314.709l-36.692-94.352L269.3,314.709H342.685z"/>
	<g>
	</g>
	<g>
	</g>
	<g>
	</g>
	<g>
	</g>
	<g>
	</g>
	<g>
	</g>
</g>
</svg>
