<svg id="Layer_1" xmlns="http://www.w3.org/2000/svg" width="100px" height="100px" viewBox="0 0 100 100"><g id="Layer_1_1_"><path fill="#ADADAD" d="M62.1,59.8c-5.4,6.7-15.2,7.7-21.9,2.3c-6.7-5.4-7.7-15.2-2.3-21.9c5.4-6.7,15.2-7.7,21.9-2.3 S67.5,53.1,62.1,59.8 M52.1,47.4c-1.5-1.2-3.6-0.9-4.8,0.5c-1.2,1.5-0.9,3.6,0.5,4.8c1.5,1.2,3.6,0.9,4.8-0.5 C53.8,50.7,53.6,48.5,52.1,47.4"/><path fill="#ADADAD" d="M50,0C22.4,0,0,22.4,0,50c0,27.6,22.4,50,50,50c27.6,0,50-22.4,50-50C100,22.4,77.6,0,50,0 M61,4 c3.4,0.8,6.7,2,10,3.6s6.2,3.5,8.9,5.7l-18.2,23c-1.1-0.9-2.3-1.8-3.7-2.4c-1.4-0.7-2.8-1.2-4.2-1.5L61,4z M14.6,81.3l-3-3.8 L36,61.3L14.6,81.3z M39.1,96c-3.4-0.8-6.7-2-10-3.6c-3.3-1.6-6.2-3.5-8.9-5.7l18.2-23c1.1,0.9,2.3,1.8,3.7,2.4 c1.4,0.7,2.8,1.2,4.2,1.5L39.1,96z M50,66.3c-9,0-16.3-7.3-16.3-16.3S41,33.7,50,33.7S66.3,41,66.3,50S59,66.3,50,66.3 M64.2,39 L86,19.4l3,3.9L64.2,39z"/></g><g id="Layer_2"><path d="M57.5,24.2v51.4h-16V63l-4.3,12.6H24.9L20.6,63v12.6H4.7V24.2h17.6l8.8,25.2l8.8-25.2H57.5z"/><polygon points="89.8,75.6 74.2,75.6 74.2,69.1 55.4,69.1 55.4,57.7 77.2,24.2 89.8,24.2 89.8,53.9 94.5,53.9 94.5,69.1 89.8,69.1"/><path fill="#fff" d="M8.7,28.2h10.9l11.5,33.2l11.5-33.2h10.9v43.6h-8V39.1l-11,32.6h-6.8l-11-32.6v32.6h-8V28.2H8.7z"/><path fill="#fff" d="M78,65.3H59.3v-6.4l20-30.6H86v29.6h4.6v7.4H86v6.5h-7.8v-6.6H78z M78,41.5L67.6,57.8H78V41.5z"/></g></svg>
