<svg id="Layer_1" xmlns="http://www.w3.org/2000/svg" width="100px" height="100px" viewBox="0 0 100 100"><g id="Layer_1_1_"><path fill="#BA890B" d="M62.1,59.8c-5.4,6.7-15.2,7.7-21.9,2.3c-6.7-5.4-7.7-15.2-2.3-21.9c5.4-6.7,15.2-7.7,21.9-2.3 S67.5,53.1,62.1,59.8 M52.1,47.4c-1.5-1.2-3.6-0.9-4.8,0.5c-1.2,1.5-0.9,3.6,0.5,4.8c1.5,1.2,3.6,0.9,4.8-0.5 C53.8,50.7,53.6,48.5,52.1,47.4"/><path fill="#BA890B" d="M50,0C22.4,0,0,22.4,0,50c0,27.6,22.4,50,50,50c27.6,0,50-22.4,50-50C100,22.4,77.6,0,50,0 M61,4 c3.4,0.8,6.7,2,10,3.6s6.2,3.5,8.9,5.7l-18.2,23c-1.1-0.9-2.3-1.8-3.7-2.4c-1.4-0.7-2.8-1.2-4.2-1.5L61,4z M14.3,80.9l-3-3.8 l24.6-16L14.3,80.9z M39.4,96.1c-3.4-0.8-6.8-2-10-3.5c-3.3-1.6-6.3-3.5-9-5.7l18-23.1c1.1,0.9,2.4,1.7,3.7,2.4 c1.4,0.7,2.8,1.1,4.2,1.4L39.4,96.1z M50,66.3c-9,0-16.3-7.3-16.3-16.3S41,33.7,50,33.7S66.3,41,66.3,50S59,66.3,50,66.3 M64.2,39 L86,19.4l3,3.9L64.2,39z"/></g><g id="Layer_2"><path d="M51.6,75.6H35.8V39.9h-8v35.8h-16V24.2h39.8V75.6z"/><path d="M71.3,75.6H56.4V24.2h14.4c1.4,0,5.9,0,10.1,1.8c5.8,2.4,9,7.2,9,13.7c0,2.9-0.7,5.4-2.2,7.6c3.1,2.8,4.8,6.7,4.8,11.3 c0,4.8-1.6,8.9-4.7,11.8C84.3,73.8,78.6,75.6,71.3,75.6z M72.4,60h1.3c0.8,0,1.7-0.1,2.3-0.4c0.6-0.2,0.7-0.4,0.7-1.2 c0-0.7,0-1.7-3-1.7h-1.3V60z M72.4,39.9V41c1,0,1.4-0.2,1.6-0.4c0,0,0-0.1,0-0.2s0-0.2,0-0.4C73.8,40.1,73.3,39.9,72.4,39.9z"/><path fill="#fff" d="M15.7,28.2h32v43.6h-8V36h-16v35.8h-8V28.2z"/><path fill="#fff" d="M60.4,28.2h10.4c2.8,0,15.1,0,15.1,11.5c0,5.4-3.6,7.7-4.8,8.3c4.7,1.6,7.4,5.6,7.4,10.6 c0,6.2-3.4,13.2-17.4,13.2H60.4V28.2z M72.1,45c5.3,0,5.8-3.4,5.8-4.4c0-4.2-4-4.4-5.8-4.4h-3.7v9h3.7V45z M73.7,63.9 c1,0,6.8,0,6.8-5.5c0-1.7-0.6-5.6-6.8-5.6h-5.3v11.2H73.7z"/></g></svg>
